<svg width="260" height="34" viewBox="0 0 260 34" fill="none" xmlns="http://www.w3.org/2000/svg">
<path d="M125.029 8.13977C125.029 5.59977 125.849 3.60977 127.479 2.16977C129.119 0.729765 131.369 0.00976562 134.259 0.00976562C136.979 0.00976562 139.139 0.749767 140.729 2.22977C142.319 3.70977 143.119 5.71977 143.119 8.27977V24.7998C143.119 27.6198 142.329 29.7898 140.759 31.3198C139.189 32.8498 136.949 33.6098 134.059 33.6098C131.119 33.6098 128.889 32.8498 127.349 31.3298C125.819 29.8098 125.039 27.5898 125.039 24.6598V8.13977H125.029ZM137.079 25.8198V7.82977C137.079 6.71977 136.829 5.87977 136.309 5.31977C135.809 4.76977 135.049 4.48977 134.049 4.48977C133.049 4.48977 132.289 4.76977 131.779 5.31977C131.269 5.87977 131.019 6.71977 131.019 7.82977V25.8098C131.019 26.9198 131.279 27.7598 131.779 28.3198C132.289 28.8898 133.049 29.1698 134.049 29.1698C135.049 29.1698 135.809 28.8898 136.309 28.3198C136.819 27.7698 137.079 26.9298 137.079 25.8198Z" fill="#0EBEE0"/>
<path d="M176.951 1.44019C176.951 1.05019 176.651 0.730195 176.271 0.700195H171.651C171.271 0.730195 170.981 1.04019 170.971 1.42019V32.2002C170.981 32.6002 171.311 32.9202 171.711 32.9202H176.201C176.611 32.9202 176.951 32.5902 176.951 32.1802V1.44019V1.44019Z" fill="black"/>
<path d="M236.029 32.9302C236.429 32.9302 236.749 32.6302 236.769 32.2402V1.3802C236.739 1.0202 236.449 0.730195 236.089 0.700195H231.469C231.109 0.730195 230.819 1.0202 230.789 1.3802V32.2402C230.819 32.6202 231.139 32.9202 231.529 32.9202H236.029V32.9302Z" fill="black"/>
<path d="M101.74 32.1802H101.79V1.44019C101.79 1.03019 101.46 0.700195 101.04 0.700195H96.6605C96.2505 0.700195 95.9205 1.03019 95.9205 1.44019V13.4702C95.9205 13.5602 95.8805 13.6602 95.8105 13.7302C95.7405 13.8002 95.6405 13.8402 95.5505 13.8402H90.4205C90.3205 13.8402 90.2305 13.8002 90.1605 13.7302C90.0905 13.6602 90.0505 13.5602 90.0505 13.4702V1.44019C90.0505 1.03019 89.7205 0.700195 89.3005 0.700195H84.9705C84.5605 0.700195 84.2305 1.03019 84.2305 1.44019V32.1802C84.2305 32.5902 84.5705 32.9202 84.9705 32.9202H89.3005C89.7105 32.9202 90.0505 32.5802 90.0505 32.1802V18.8702C90.0505 18.7802 90.0905 18.6802 90.1605 18.6102C90.2305 18.5402 90.3105 18.5102 90.4005 18.5002H95.5805C95.6705 18.5102 95.7505 18.5502 95.8205 18.6102C95.8905 18.6802 95.9305 18.7802 95.9305 18.8702V32.1802H95.9405C95.9405 32.5902 96.2705 32.9202 96.6805 32.9202H101.01C101.4 32.9302 101.74 32.5902 101.74 32.1802Z" fill="black"/>
<path d="M79.6698 22.16C79.6698 21.78 79.3798 21.46 79.0198 21.42H74.2599C73.9099 21.48 73.6398 21.78 73.6398 22.15V25.81C73.6398 26.92 73.3899 27.76 72.8799 28.32C72.3699 28.89 71.6098 29.17 70.6098 29.17C69.6098 29.17 68.8498 28.89 68.3398 28.32C67.8298 27.76 67.5798 26.92 67.5798 25.81V7.83C67.5798 6.72 67.8298 5.88 68.3398 5.32C68.8498 4.77 69.6098 4.49 70.6098 4.49C71.6098 4.49 72.3699 4.77 72.8799 5.32C73.3899 5.88 73.6398 6.72 73.6398 7.83V10.62C73.6398 11.03 73.9699 11.36 74.3799 11.36H78.9898C79.3698 11.32 79.6599 11.01 79.6599 10.62V8.27C79.6599 5.71 78.8598 3.7 77.2798 2.22C75.6898 0.740001 73.5298 0 70.8098 0C67.9298 0 65.6699 0.72 64.0399 2.16C62.4099 3.6 61.5898 5.59 61.5898 8.13V24.65C61.5898 27.59 62.3498 29.82 63.8698 31.33C65.3898 32.85 67.6398 33.6 70.6098 33.6C73.5098 33.6 75.7398 32.84 77.3098 31.31C78.8798 29.78 79.6698 27.61 79.6698 24.79V22.16Z" fill="black"/>
<path d="M17.33 0.700195H0.73999C0.32999 0.700195 0 1.03019 0 1.43019V4.62019C0.01 5.02019 0.32999 5.35019 0.73999 5.35019H5.70999C5.79999 5.35019 5.9 5.39019 5.97 5.46019C6.04 5.53019 6.07999 5.6302 6.07999 5.7202V32.1802C6.07999 32.5602 6.35998 32.8702 6.72998 32.9202H11.23C11.63 32.9202 11.96 32.5902 11.96 32.1902V5.73019C11.96 5.64019 11.99 5.5402 12.07 5.4702C12.14 5.4002 12.24 5.3602 12.33 5.3602H17.33C17.73 5.3602 18.06 5.04019 18.07 4.64019V1.42019C18.06 1.02019 17.73 0.700195 17.33 0.700195Z" fill="black"/>
<path d="M166.53 31.9702L162.56 18.2102C162.55 18.1802 162.54 18.1402 162.54 18.1102C162.54 17.9902 162.6 17.8802 162.7 17.8102C163.9 17.0602 164.78 16.1002 165.33 14.9202C165.91 13.6702 166.2 12.0402 166.2 10.0202C166.2 6.76019 165.48 4.38019 164.04 2.91019C162.59 1.44019 160.26 0.700195 157.02 0.700195H149.16C148.75 0.700195 148.41 1.03019 148.41 1.44019H148.4V32.2602C148.44 32.6302 148.75 32.9202 149.14 32.9202H153.53C153.94 32.9202 154.28 32.5802 154.28 32.1802H154.29V19.7402C154.29 19.6502 154.33 19.5502 154.4 19.4802C154.47 19.4102 154.57 19.3702 154.66 19.3702H156.8C156.89 19.3702 156.99 19.4002 157.06 19.4802C157.11 19.5302 157.14 19.5902 157.15 19.6502L160.51 32.1802L160.56 32.3702C160.64 32.6902 160.93 32.9202 161.28 32.9202H165.89C166.26 32.8802 166.55 32.5702 166.55 32.1802C166.56 32.1102 166.55 32.0402 166.53 31.9702ZM159.42 13.6802C158.9 14.3702 157.96 14.7202 156.6 14.7202H154.65C154.56 14.7202 154.46 14.6802 154.39 14.6102C154.32 14.5302 154.28 14.4402 154.28 14.3402V5.6902C154.29 5.6102 154.32 5.53019 154.39 5.46019C154.46 5.39019 154.54 5.36019 154.62 5.35019H156.39C157.83 5.35019 158.83 5.67019 159.38 6.32019C159.93 6.97019 160.21 8.14019 160.21 9.84019C160.22 11.7002 159.95 12.9902 159.42 13.6802Z" fill="#0EBEE0"/>
<path d="M201.561 1.4502C201.561 1.0402 201.231 0.710194 200.821 0.710194V0.700195H196.811V0.710194C196.401 0.710194 196.071 1.0402 196.071 1.4502V19.0402V19.1902C196.071 19.2802 196.031 19.3802 195.961 19.4502C195.811 19.5902 195.581 19.5902 195.441 19.4502C195.401 19.4102 195.371 19.3702 195.361 19.3202L188.331 1.17019C188.221 0.900193 187.951 0.700195 187.641 0.700195H183.621V0.710194C183.241 0.710194 182.931 0.990193 182.881 1.35019V32.1802C182.881 32.5902 183.211 32.9202 183.621 32.9202H187.591C188.001 32.9202 188.331 32.5902 188.331 32.1802V16.0802C188.331 15.9502 188.331 15.7902 188.331 15.6102C188.331 15.5202 188.371 15.4202 188.441 15.3502C188.581 15.2102 188.821 15.2102 188.971 15.3502C189.011 15.3902 189.031 15.4302 189.051 15.4802L195.891 32.4802C195.991 32.7302 196.231 32.9102 196.511 32.9302H200.831C201.221 32.9302 201.531 32.6402 201.571 32.2602L201.561 1.4502Z" fill="black"/>
<path d="M223.11 2.87019C221.56 1.43019 219.16 0.700195 215.92 0.700195H208.31V0.710194C207.92 0.710194 207.61 1.00019 207.57 1.37019V32.2502C207.61 32.6302 207.93 32.9202 208.31 32.9202H216.18C219.4 32.9202 221.74 32.2002 223.22 30.7802C224.69 29.3502 225.43 27.0702 225.43 23.9402V9.5402C225.44 6.5302 224.67 4.31019 223.11 2.87019ZM219.44 24.8002C219.44 25.9502 219.19 26.8002 218.69 27.3602C218.19 27.9102 217.42 28.1902 216.39 28.1902H213.77C213.68 28.1902 213.59 28.1502 213.52 28.0802C213.46 28.0102 213.42 27.9302 213.41 27.8502V5.82019C213.41 5.73019 213.45 5.63019 213.52 5.56019C213.59 5.48019 213.69 5.4502 213.78 5.4502H214.75C216.36 5.4502 217.55 5.7602 218.31 6.3702C219.06 6.9802 219.44 7.96019 219.44 9.28019V24.8002Z" fill="black"/>
<path d="M259.989 32.13L254.039 1.44996L254.029 1.37996L254.019 1.32996C253.959 0.97996 253.659 0.709961 253.289 0.709961H246.839C246.479 0.709961 246.179 0.969959 246.109 1.30996L246.089 1.41996L246.079 1.44996L240.119 32.04C240.109 32.09 240.109 32.14 240.109 32.19C240.109 32.6 240.439 32.94 240.849 32.94H245.099C245.459 32.94 245.759 32.68 245.819 32.33C245.829 32.28 245.839 32.2 245.839 32.2L246.919 26.26C246.929 26.19 246.969 26.13 247.019 26.08C247.089 26.01 247.189 25.97 247.279 25.97H252.589C252.679 25.97 252.779 26 252.849 26.08C252.909 26.13 252.939 26.2 252.949 26.27L252.959 26.34L253.949 32.2C253.949 32.2 253.969 32.29 253.979 32.33C254.039 32.68 254.339 32.94 254.709 32.94H259.219C259.629 32.94 259.969 32.6 259.969 32.19C259.999 32.16 259.999 32.15 259.989 32.13ZM252.039 21.27C251.969 21.34 251.879 21.38 251.779 21.38H248.129C248.049 21.37 247.969 21.33 247.899 21.27C247.809 21.18 247.779 21.06 247.799 20.94L249.649 9.12996V9.13996C249.679 8.94996 249.829 8.80996 250.019 8.80996C250.209 8.80996 250.369 8.94996 250.389 9.13996V9.12996L252.149 20.94H252.139C252.169 21.06 252.139 21.18 252.039 21.27Z" fill="black"/>
<path d="M58.8895 32.13L52.9495 1.44996L52.9295 1.37996L52.9195 1.32996C52.8595 0.97996 52.5595 0.709961 52.1895 0.709961H45.7395C45.3795 0.709961 45.0796 0.969959 45.0096 1.30996L44.9895 1.41996L44.9795 1.44996L39.0295 32.04C39.0195 32.09 39.0195 32.14 39.0195 32.19C39.0195 32.6 39.3496 32.94 39.7596 32.94H44.0096C44.3696 32.94 44.6695 32.68 44.7395 32.33C44.7495 32.28 44.7596 32.2 44.7596 32.2L45.8395 26.26C45.8495 26.19 45.8895 26.13 45.9395 26.08C46.0095 26.01 46.1095 25.97 46.1995 25.97H51.5096C51.5996 25.97 51.6995 26 51.7695 26.08C51.8195 26.13 51.8595 26.2 51.8695 26.27L51.8795 26.34L52.8795 32.2C52.8795 32.2 52.8995 32.29 52.9095 32.33C52.9695 32.68 53.2695 32.94 53.6295 32.94H58.1395C58.5495 32.94 58.8895 32.6 58.8895 32.19C58.8995 32.16 58.8995 32.15 58.8895 32.13ZM50.9495 21.27C50.8695 21.34 50.7795 21.38 50.6895 21.38H47.0396C46.9596 21.37 46.8795 21.33 46.8195 21.27C46.7295 21.18 46.6995 21.06 46.7095 20.94L48.5595 9.12996V9.13996C48.5895 8.94996 48.7395 8.80996 48.9295 8.80996C49.1195 8.80996 49.2795 8.94996 49.2995 9.13996L49.3095 9.12996L51.0695 20.94C51.0695 21.06 51.0295 21.18 50.9495 21.27Z" fill="black"/>
<path d="M122.281 0.700195H108.461C108.051 0.700195 107.711 1.03019 107.711 1.44019V32.1802C107.711 32.5902 108.041 32.9202 108.461 32.9202H112.851C113.261 32.9202 113.591 32.5802 113.591 32.1802V18.7902C113.601 18.7102 113.631 18.6302 113.691 18.5702C113.761 18.5002 113.851 18.4702 113.941 18.4702H119.681C120.071 18.4502 120.391 18.1202 120.391 17.7202V14.5502C120.391 14.1302 120.061 13.8102 119.641 13.8102H113.951C113.861 13.8102 113.761 13.7802 113.691 13.7002C113.621 13.6202 113.581 13.5302 113.581 13.4402V5.71019C113.581 5.62019 113.621 5.53019 113.681 5.46019C113.751 5.40019 113.831 5.3602 113.921 5.3602H122.271C122.681 5.3602 123.021 5.0202 123.021 4.6102V1.44019C123.031 1.03019 122.691 0.700195 122.281 0.700195Z" fill="#0EBEE0"/>
<path d="M26.8704 5.46019C26.9404 5.40019 27.0204 5.3602 27.1004 5.3602H35.4804C35.8704 5.3602 36.2004 5.05019 36.2204 4.66019V1.44019H36.2004C36.2004 1.03019 35.8704 0.700195 35.4604 0.700195H21.6404C21.2304 0.700195 20.9004 1.03019 20.9004 1.44019V32.2202C20.9204 32.6002 21.2304 32.9102 21.6104 32.9302H35.5204C35.8904 32.9102 36.1804 32.6402 36.2304 32.2802V28.7402C36.1904 28.3802 35.8804 28.1002 35.5004 28.0902H27.1204C27.0304 28.0802 26.9504 28.0502 26.8804 27.9902C26.8104 27.9102 26.7804 27.8202 26.7804 27.7302V18.8302C26.7804 18.7402 26.8204 18.6402 26.8804 18.5702C26.8904 18.5602 26.9104 18.5502 26.9304 18.5302C26.9404 18.5202 26.9404 18.5202 26.9504 18.5102C26.9704 18.5002 26.9904 18.4902 27.0104 18.4802C27.0404 18.4702 27.0804 18.4602 27.1104 18.4602H32.8404C33.2504 18.4602 33.5904 18.1202 33.5904 17.7102V14.4802C33.5604 14.1002 33.2404 13.7902 32.8504 13.7902H27.1304C27.0404 13.7802 26.9504 13.7502 26.8804 13.6802C26.8104 13.6102 26.7804 13.5402 26.7704 13.4502V5.70019C26.7704 5.63019 26.8004 5.53019 26.8704 5.46019Z" fill="black"/>
</svg>
